<?xml version="1.0" encoding="UTF-8" standalone="no"?>
<!-- Created with Inkscape (http://www.inkscape.org/) -->

<svg
   xmlns:dc="http://purl.org/dc/elements/1.1/"
   xmlns:cc="http://creativecommons.org/ns#"
   xmlns:rdf="http://www.w3.org/1999/02/22-rdf-syntax-ns#"
   xmlns:svg="http://www.w3.org/2000/svg"
   xmlns="http://www.w3.org/2000/svg"
   xmlns:sodipodi="http://sodipodi.sourceforge.net/DTD/sodipodi-0.dtd"
   xmlns:inkscape="http://www.inkscape.org/namespaces/inkscape"
   width="382.86755mm"
   height="383.57303mm"
   viewBox="0 0 1356.6173 1359.117"
   id="svg5265"
   version="1.1"
   inkscape:version="0.91 r13725"
   sodipodi:docname="root_logo_inverted.svg">
  <defs
     id="defs5267" />
  <sodipodi:namedview
     id="base"
     pagecolor="#ffffff"
     bordercolor="#666666"
     borderopacity="1.0"
     inkscape:pageopacity="0.0"
     inkscape:pageshadow="2"
     inkscape:zoom="0.35"
     inkscape:cx="441.88008"
     inkscape:cy="502.41566"
     inkscape:document-units="px"
     inkscape:current-layer="layer1"
     showgrid="false"
     fit-margin-top="0"
     fit-margin-left="0"
     fit-margin-right="0"
     fit-margin-bottom="0"
     inkscape:window-width="1916"
     inkscape:window-height="1041"
     inkscape:window-x="0"
     inkscape:window-y="18"
     inkscape:window-maximized="0" />
  <metadata
     id="metadata5270">
    <rdf:RDF>
      <cc:Work
         rdf:about="">
        <dc:format>image/svg+xml</dc:format>
        <dc:type
           rdf:resource="http://purl.org/dc/dcmitype/StillImage" />
        <dc:title></dc:title>
      </cc:Work>
    </rdf:RDF>
  </metadata>
  <g
     inkscape:label="Layer 1"
     inkscape:groupmode="layer"
     id="layer1"
     transform="translate(-38.834201,324.33916)">
    <rect
       style="fill:#1ed4e5;fill-opacity:1;stroke:none;stroke-width:1;stroke-miterlimit:4;stroke-dasharray:none;stroke-opacity:1"
       id="rect4135"
       width="1356.6173"
       height="1359.1171"
       x="38.834202"
       y="-324.33926" />
  </g>
  <g
     inkscape:groupmode="layer"
     id="layer2"
     inkscape:label="Layer 2">
    <path
       transform="translate(-38.834201,324.33916)"
       style="fill:#ffffff;fill-opacity:1;stroke:none;stroke-width:1;stroke-miterlimit:4;stroke-dasharray:none;stroke-opacity:1"
       d="M 669.54644,1034.1835 C 567.80683,1023.7058 500.10756,1005.1885 420.00571,965.92819 360.4928,936.75909 310.83422,903.23399 261.05564,858.6192 204.9559,808.3389 148.8506,735.23911 114.65872,667.87803 c -6.3875,-12.58393 -11.17115,-23.25305 -10.63034,-23.70915 1.2897,-1.08768 308.95082,-141.97183 321.65039,-147.29013 5.37016,-2.2489 10.11223,-3.72708 10.53796,-3.28482 0.42572,0.44224 45.15819,93.30801 99.40546,206.36839 54.24729,113.06038 98.97869,205.94777 99.40316,206.41657 0.42444,0.4687 1.115,0.4687 1.53453,0 0.41954,-0.4688 30.40595,-184.93967 66.63648,-409.93547 C 739.4269,271.44768 773.77918,58.226462 779.5348,22.618482 l 10.46475,-64.74177 32.83987,-1.23923 c 42.27733,-1.59535 361.70588,-7.37251 406.70618,-7.35565 l 34.3272,0.0129 20.5367,31.1926 c 35.7954,54.36859 67.7468,123.714678 85.5556,185.686418 19.0925,66.43901 25.4668,113.48747 25.4862,188.11332 0.018,71.3403 -5.8826,118.27145 -22.6326,179.9966 -61.6639,227.23724 -241.1175,409.46272 -467.22015,474.43723 -31.7219,9.1158 -69.91426,17.0405 -104.12278,21.6049 -22.47008,2.9982 -114.22415,5.6811 -131.92933,3.8578 z"
       id="path4163"
       inkscape:connector-curvature="0" />
    <path
       transform="translate(-38.834201,324.33916)"
       style="fill:#ffffff;fill-opacity:1;stroke:none;stroke-width:1;stroke-miterlimit:4;stroke-dasharray:none;stroke-opacity:1"
       d="m 539.66368,532.82053 c -35.24562,-74.00637 -64.46582,-135.01488 -64.93379,-135.5744 -1.29149,-1.54427 -20.09854,8.97915 -208.99742,116.94375 -96.10007,54.92573 -175.015193,99.86496 -175.366953,99.86496 -1.17482,0 -7.04405,-15.09853 -15.90222,-40.90832 C 32.952347,452.19738 27.496767,314.03691 59.238537,187.58563 87.329467,75.678412 148.45925,-33.841388 229.78029,-117.95607 341.58321,-233.59978 488.01546,-304.98404 648.06958,-321.8679 c 38.42561,-4.05346 122.94039,-2.95104 158.51973,2.06775 126.95894,17.9087 236.89099,65.34999 338.51629,146.08693 20.0088,15.89609 81.4529,75.969672 89.6479,87.648122 l 4.6111,6.57127 -40.4819,-1.03302 c -69.7366,-1.77953 -388.45128,-6.99761 -427.35507,-6.99675 -36.80167,7.9e-4 -37.11587,0.0386 -38.17308,4.60298 -0.5863,2.5312 -29.37263,171.66153 -63.96962,375.845168 -34.59695,204.18363 -63.51889,371.96525 -64.27095,372.84801 -0.75204,0.88278 -30.20467,-58.94563 -65.4503,-132.95203 z"
       id="path4165"
       inkscape:connector-curvature="0" />
  </g>
</svg>
